# xmcd CD database file
#
# Track frame offsets:
#	150
#	27974
#	56125
#	83454
#	109720
#	135857
#	162215
#	189447
#	216963
#	244556
#	272228
#	298179
#
# Disc length: 4348 seconds
#
# Revision: 0
# Processed by: cddbd v1.5.2PL0 Copyright (c) Steve Scherf et al.
# Submitted via: CDex 1.51
#
DISCID=a310fa0c
DTITLE=NaturaSpa - La Maison Zen - CD de musiques Relaxantes
DYEAR=2002
DGENRE=New Age
TTITLE0=Réveil calme 1 - Lumière (Ph. BEestion)
TTITLE1=Dans les champs - Lumière (Nicolas Jeandot)
TTITLE2=Oiseau du lendemain - Lumière (Vincent Bruley)
TTITLE3=Souffle 3 - Air (Vincent Bruley)
TTITLE4=La grotte - Air (Gioari: A. Niggli and G. Simona)
TTITLE5=Plage 5 - Air (Laurent Dury)
TTITLE6=Romance d'azur - Eau (Ylric Illians)
TTITLE7=Rêverie 1 - Eau (Vincent Bruley)
TTITLE8=Tourbillons de cristal - Eau (Ph. Bestion)
TTITLE9=Chants douceur - Nature (Ph. Bestion)
TTITLE10=Chaleur 1 - Nature (Ph. Bestion)
TTITLE11=Crépuscule 1 - Nature (Ph. Bestion)
EXTD=YEAR: 2002
EXTT0=
EXTT1=
EXTT2=
EXTT3=
EXTT4=
EXTT5=
EXTT6=
EXTT7=
EXTT8=
EXTT9=
EXTT10=
EXTT11=
PLAYORDER=
